HIERARCHY
ROOT Hips
{
	OFFSET	0.00	0.00	0.00
	CHANNELS 6 Xposition Yposition Zposition Zrotation Xrotation Yrotation
	JOINT LeftUpLeg
	{
		OFFSET	 0.126116	-0.014019	-0.065224
		CHANNELS 3 Zrotation Xrotation Yrotation
		JOINT LeftLeg
		{
			OFFSET	 0.000000	 0.000000	 0.569914
			CHANNELS 3 Zrotation Xrotation Yrotation
			JOINT LeftFoot
			{
				OFFSET	 0.000000	 0.000000	 0.544423
				CHANNELS 3 Zrotation Xrotation Yrotation
				JOINT LeftToeBase
				{
					OFFSET	 0.000000	 0.000000	 0.207117
					CHANNELS 3 Zrotation Xrotation Yrotation
					End Site
					{
						OFFSET	 0.000000	 0.000000	 0.207117
					}
				}
			}
		}
	}
	JOINT RightUpLeg
	{
		OFFSET	-0.124023	-0.008373	-0.065224
		CHANNELS 3 Zrotation Xrotation Yrotation
		JOINT RightLeg
		{
			OFFSET	 0.000000	 0.000000	 0.570047
			CHANNELS 3 Zrotation Xrotation Yrotation
			JOINT RightFoot
			{
				OFFSET	 0.000000	 0.000000	 0.544354
				CHANNELS 3 Zrotation Xrotation Yrotation
				JOINT RightToeBase
				{
					OFFSET	 0.000000	 0.000000	 0.207540
					CHANNELS 3 Zrotation Xrotation Yrotation
					End Site
					{
						OFFSET	 0.000000	 0.000000	 0.207540
					}
				}
			}
		}
	}
	JOINT Spine
	{
		OFFSET	 0.000184	-0.007763	 0.117403
		CHANNELS 3 Zrotation Xrotation Yrotation
		JOINT Spine1
		{
			OFFSET	 0.000000	 0.000000	 0.137269
			CHANNELS 3 Zrotation Xrotation Yrotation
			JOINT Spine2
			{
				OFFSET	 0.000000	 0.000000	 0.156879
				CHANNELS 3 Zrotation Xrotation Yrotation
				JOINT LeftShoulder
				{
					OFFSET	 0.080501	-0.002496	 0.160144
					CHANNELS 3 Zrotation Xrotation Yrotation
					JOINT LeftArm
					{
						OFFSET	 0.000000	 0.000000	 0.164363
						CHANNELS 3 Zrotation Xrotation Yrotation
						JOINT LeftForeArm
						{
							OFFSET	 0.000000	 0.000000	 0.364576
							CHANNELS 3 Zrotation Xrotation Yrotation
							JOINT LeftHand
							{
								OFFSET	 0.000000	 0.000000	 0.360812
								CHANNELS 3 Zrotation Xrotation Yrotation
								JOINT LeftHandIndex1
								{
									OFFSET	 0.000000	 0.000000	 0.086006
									CHANNELS 3 Zrotation Xrotation Yrotation
									JOINT LeftHandIndex2
									{
										OFFSET	 0.000000	 0.000000	 0.047236
										CHANNELS 3 Zrotation Xrotation Yrotation
										JOINT LeftHandIndex3
										{
											OFFSET	-0.004284	-0.000551	 0.038166
											CHANNELS 3 Zrotation Xrotation Yrotation
											End Site
											{
												OFFSET	-0.004284	-0.000551	 0.038166
											}
										}
									}
								}
							}
						}
					}
				}
				JOINT Neck
				{
					OFFSET	 0.000000	 0.000000	 0.176489
					CHANNELS 3 Zrotation Xrotation Yrotation
					JOINT Head
					{
						OFFSET	 0.000000	-0.001747	 0.077940
						CHANNELS 3 Zrotation Xrotation Yrotation
						End Site
						{
							OFFSET	 0.000000	-0.001747	 0.077940
						}
					}
				}
				JOINT RightShoulder
				{
					OFFSET	-0.080363	 0.000306	 0.159706
					CHANNELS 3 Zrotation Xrotation Yrotation
					JOINT RightArm
					{
						OFFSET	 0.000000	 0.000000	 0.164196
						CHANNELS 3 Zrotation Xrotation Yrotation
						JOINT RightForeArm
						{
							OFFSET	 0.000000	 0.000000	 0.365611
							CHANNELS 3 Zrotation Xrotation Yrotation
							JOINT RightHand
							{
								OFFSET	 0.000000	 0.000000	 0.360648
								CHANNELS 3 Zrotation Xrotation Yrotation
								JOINT RightHandIndex1
								{
									OFFSET	 0.000000	 0.000000	 0.069977
									CHANNELS 3 Zrotation Xrotation Yrotation
									JOINT RightHandIndex2
									{
										OFFSET	 0.000000	 0.000000	 0.052305
										CHANNELS 3 Zrotation Xrotation Yrotation
										JOINT RightHandIndex3
										{
											OFFSET	 0.009002	-0.000782	 0.042196
											CHANNELS 3 Zrotation Xrotation Yrotation
											End Site
											{
												OFFSET	 0.009002	-0.000782	 0.042196
											}
										}
									}
								}
							}
						}
					}
				}
			}
		}
	}
}
MOTION
Frames:    8
Frame Time: 0.03333334
-0.000587	 0.047850	 1.275714	-0.043182	 3.180490	 0.489561	 14.241460	-6.629541	 177.473400	 2.146709	-11.750030	 0.522317	 0.177429	 69.574630	-0.264516	-2.385833	 28.452750	 0.000004	-6.813178	-6.144511	-177.623300	-0.788230	-10.341830	 0.783820	 4.431641	 68.784760	 1.954836	 2.384659	 28.388700	-0.000001	-13.689580	 6.960822	 1.519857	-3.217946	-4.660046	-0.262244	 9.783742	 8.150655	-0.913953	-90.999850	 68.646510	-177.453200	-8.363274	 3.392718	-26.407410	 21.793690	 0.070404	-2.848550	-9.692995	-24.962590	-5.571802	-2.027600	 6.559038	 9.033609	-5.188889	 0.308190	 3.541030	-5.234859	 0.342567	 0.430617	 4.694590	 20.829830	-7.646194	 5.112820	-15.793670	 2.290552	 88.772270	 67.036090	 176.900500	 7.677955	 8.653143	 8.857703	-22.630180	-7.869245	 30.021550	 6.921357	-24.371520	 6.800124	 1.803333	 3.979147	-15.098590	 4.898592	 3.004813	-9.310344	 5.224449	 0.395017	 2.014677
-0.001251	 0.053729	 1.274922	 0.033171	 4.124495	 0.568009	 14.397100	-8.198078	 177.652600	 2.118033	-12.201990	 0.545205	 1.194457	 69.473720	-1.419055	-2.385833	 28.452750	 0.000004	-7.276933	-7.602150	-177.920100	-0.781330	-10.637450	 0.807253	 3.391269	 68.616960	 3.104163	 2.384659	 28.388700	-0.000001	-18.035610	 7.499527	 1.628127	-3.275919	-5.659328	-0.306685	 9.767879	 9.758575	-1.145026	-90.875730	 67.783540	-177.213500	-7.121772	 5.171582	-29.186270	 18.823150	 0.354293	-4.297945	-9.809425	-27.422980	-6.918067	-2.027600	 6.559038	 9.033609	-5.188889	 0.308190	 3.541030	-5.234859	 0.342567	 0.430617	 4.738112	 23.468360	-8.406787	 5.591608	-17.921420	 2.486942	 88.533140	 65.368230	 176.508500	 6.075286	 10.156510	 10.724780	-20.535260	-6.455050	 31.652500	 6.349942	-26.123630	 7.025192	 1.803333	 3.979147	-15.098590	 4.898592	 3.004813	-9.310344	 5.224449	 0.395017	 2.014677
-0.002603	 0.067130	 1.273358	 0.195753	 6.235711	 0.726106	 14.677910	-12.254000	 178.123600	 2.160588	-14.334950	 0.638476	 3.744074	 69.822200	-4.275482	-2.385832	 28.452790	-0.000001	-8.227524	-10.932790	-178.637700	-1.236296	-11.397500	 0.773823	 1.528800	 68.328340	 5.690856	 2.384659	 28.388700	-0.000001	-25.186380	 8.458733	 1.732351	-3.231889	-6.133852	-0.068577	 9.479794	 11.727050	-1.626229	-90.838370	 65.775150	-177.412000	-4.822324	 7.449714	-34.173120	 12.149300	 1.168292	-6.817508	-12.020890	-31.216300	-10.337260	-2.027600	 6.559038	 9.033609	-5.188889	 0.308190	 3.541030	-5.234859	 0.342567	 0.430617	 4.327731	 26.300880	-8.823069	 6.137731	-20.431230	 2.525130	 88.387610	 62.224690	 176.604600	 2.370903	 11.966240	 13.657860	-16.168230	-3.448180	 35.558780	 5.966261	-28.748040	 8.431287	 1.803333	 3.979147	-15.098590	 4.898592	 3.004813	-9.310344	 5.224449	 0.395017	 2.014677
-0.003389	 0.085690	 1.271420	 0.618583	 9.353969	 0.738296	 14.621070	-17.558130	 179.115100	 2.043662	-16.312120	 0.691389	 7.478912	 69.378860	-8.423903	-2.385833	 28.452760	 0.000004	-9.366150	-15.805190	-179.541500	-1.568144	-12.470450	 0.773611	-1.233312	 67.783280	 9.205838	 2.384659	 28.388700	-0.000001	-31.790880	 9.283504	 1.727898	-3.041032	-6.602830	 0.174579	 8.899798	 13.071300	-1.849388	-91.719320	 64.776150	-179.850400	-2.586428	 10.421430	-37.018260	 5.937567	 2.422335	-9.363894	-15.437480	-33.760830	-14.468410	-2.027600	 6.559038	 9.033609	-5.188889	 0.308190	 3.541030	-5.234859	 0.342567	 0.430617	 3.581674	 26.867380	-8.750994	 6.331205	-21.589720	 2.489716	 89.199710	 60.788510	 178.652600	-2.388717	 14.957490	 14.907520	-12.033900	 0.144590	 39.900260	 6.182475	-31.192390	 10.433920	 1.803333	 3.979147	-15.098590	 4.898592	 3.004813	-9.310344	 5.224449	 0.395017	 2.014677
-0.004995	 0.104145	 1.268258	 1.047765	 12.830040	 0.695944	 14.403190	-23.048140	-179.868200	 2.208315	-18.285390	 0.824071	 11.068280	 69.160580	-12.771830	-2.385832	 28.452790	-0.000001	-10.276140	-21.450100	 179.472500	-1.708358	-14.881880	 0.883943	-4.540637	 68.156160	 13.175240	 2.384659	 28.388700	-0.000001	-36.261520	 9.894943	 1.740958	-2.788029	-5.996799	 0.348680	 8.229216	 13.036600	-1.631319	-92.819310	 65.169960	 177.206200	-1.217197	 13.064960	-38.385720	 2.661527	 3.764359	-11.377590	-17.387770	-35.281890	-17.025660	-2.027600	 6.559038	 9.033609	-5.188889	 0.308190	 3.541030	-5.234859	 0.342567	 0.430617	 3.006673	 25.016500	-8.962781	 6.162852	-21.272340	 2.241602	 90.318210	 60.291270	-178.779800	-6.575697	 18.347690	 16.353820	-8.437683	 3.896639	 43.784390	 7.738096	-33.252570	 12.428500	 1.803333	 3.979147	-15.098590	 4.898592	 3.004813	-9.310344	 5.224449	 0.395017	 2.014677
-0.008861	 0.124279	 1.266478	 2.626917	 18.217450	 0.768953	 12.643250	-29.815170	-179.154800	 3.156816	-18.705970	 1.147353	 13.025480	 67.161960	-16.410520	-2.385833	 28.452760	 0.000004	-12.556020	-28.144590	 177.554100	-1.410052	-16.484110	 1.061533	-9.107539	 67.516500	 18.214100	 2.384659	 28.388700	-0.000001	-39.601610	 9.735262	 1.458707	-3.011908	-4.426031	 0.387881	 7.189468	 11.345240	-1.732813	-93.793970	 65.510280	 174.508300	 0.134483	 13.851150	-39.273380	-0.452522	 5.288680	-13.170820	-19.089630	-35.873770	-19.218780	-2.027600	 6.559038	 9.033609	-5.188889	 0.308190	 3.541030	-5.234859	 0.342567	 0.430617	 2.532998	 24.186530	-8.054557	 5.772500	-21.779570	 1.867056	 91.480910	 60.838730	-176.064200	-10.895620	 21.751680	 18.933380	-5.755472	 7.755892	 48.467540	 9.632872	-34.273340	 14.726980	 1.803333	 3.979147	-15.098590	 4.898592	 3.004813	-9.310344	 5.224449	 0.395017	 2.014677
-0.014262	 0.147856	 1.261696	 4.012040	 22.455650	 0.564465	 10.971550	-36.512090	-178.724600	 3.782047	-20.590380	 1.478893	 15.732220	 66.546060	-20.544210	-2.385833	 28.452750	 0.000004	-14.703320	-34.913900	 175.595000	-1.873732	-19.596040	 1.098625	-13.091650	 67.820770	 23.447360	 2.384659	 28.388700	-0.000001	-40.772330	 9.944120	 1.160043	-2.982501	-0.344741	 0.929137	 6.165182	 9.106153	-2.250024	-94.446520	 67.023470	 172.121100	 0.524173	 14.470700	-41.585080	-3.232004	 7.007270	-14.798930	-21.220970	-36.667480	-21.607450	-2.027600	 6.559038	 9.033609	-5.188889	 0.308190	 3.541030	-5.234859	 0.342567	 0.430617	 1.920749	 23.285380	-6.536134	 5.166359	-22.575550	 1.138757	 92.457540	 61.973330	-173.551100	-13.361010	 24.527670	 24.044260	-3.874911	 11.475890	 51.553140	 12.655820	-34.981080	 17.394830	 1.803333	 3.979147	-15.098590	 4.898592	 3.004813	-9.310344	 5.224449	 0.395017	 2.014677
-0.018332	 0.171398	 1.253675	 3.695397	 24.460870	 0.482590	 11.392590	-41.464160	-177.968700	 3.846206	-23.270730	 1.686740	 18.135710	 66.078460	-23.733510	-2.385833	 28.452750	 0.000004	-14.708240	-40.352690	 174.562000	-2.213532	-22.856310	 1.139989	-15.264580	 67.403510	 26.768710	 2.384659	 28.388700	-0.000001	-39.162810	 10.716920	 1.021583	-2.349251	 2.999340	 1.539446	 5.721620	 8.080022	-2.451633	-94.534830	 69.594760	 170.293100	-0.051630	 14.891130	-44.071220	-5.476345	 8.418391	-15.911820	-23.720160	-37.842440	-23.815530	-2.027600	 6.559038	 9.033609	-5.188889	 0.308190	 3.541030	-5.234859	 0.342567	 0.430617	 1.257165	 21.936650	-6.009335	 4.836770	-22.929180	 0.918998	 92.975650	 63.653030	-171.772100	-13.514360	 26.332860	 27.921650	-2.563432	 14.660260	 54.381670	 17.093500	-35.938830	 20.460440	 1.803333	 3.979147	-15.098590	 4.898592	 3.004813	-9.310344	 5.224449	 0.395017	 2.014677
